# xmcd CD database file
#
# Track frame offsets:
#	150
#	19000
#	34655
#	52478
#	65960
#	84735
#	98808
#	125455
#	143583
#	169805
#	186250
#	202215
#
# Disc length: 2988 seconds
#
# Revision: 0
# Processed by: cddbd v1.5.1PL0 Copyright (c) Steve Scherf et al.
# Submitted via: CDex 1.51
#
DISCID=b60baa0c
DTITLE=藤原道山 - 空 KU
DYEAR=1900
DGENRE=New Age
TTITLE0=黄金の海
TTITLE1=ディープ・リヴァー
TTITLE2=蒼穹
TTITLE3=回廊の空
TTITLE4=アメイジング・グレイス
TTITLE5=ピエ・イエズ〜「レクイエム」より〜
TTITLE6=道
TTITLE7=金髪のジェニー
TTITLE8=空
TTITLE9=タントゥム・エルゴ
TTITLE10=恋風
TTITLE11=アヴェ・マリア
EXTD=
EXTT0=
EXTT1=
EXTT2=
EXTT3=
EXTT4=
EXTT5=
EXTT6=
EXTT7=
EXTT8=
EXTT9=
EXTT10=
EXTT11=
PLAYORDER=
